<svg width="28" height="26" viewBox="0 0 28 26" fill="none" xmlns="http://www.w3.org/2000/svg">
<path fill-rule="evenodd" clip-rule="evenodd" d="M14 3C12.0635 3 10.3499 4.25386 9.76397 6.09957L8.76383 9.25H9.62497H18.375H19.2362L18.236 6.09957C17.65 4.25386 15.9364 3 14 3ZM21.859 9.25L20.6188 5.34312C19.7033 2.45917 17.0258 0.5 14 0.5C10.9742 0.5 8.29669 2.45917 7.38115 5.34312L6.14088 9.25H3.18489C1.50734 9.25 0.305829 10.8695 0.792329 12.475L2.19763 17.1125L3.93248 22.8375C4.41163 24.4187 5.86914 25.5 7.52133 25.5H11.5H16.5H20.4787C22.1308 25.5 23.5883 24.4187 24.0674 22.8375L25.8023 17.1125L27.2076 12.475C27.6941 10.8695 26.4927 9.25 24.815 9.25H21.859ZM7.05553 11.75H3.18489L4.32125 15.5H9.04522L8.53385 11.75H7.05553ZM11.057 11.75L11.5684 15.5H16.4315L16.9429 11.75H11.057ZM19.466 11.75L18.9548 15.5H23.6787L24.815 11.75H20.9444H19.466ZM22.9212 18H18.6138L17.932 23H20.4787C21.0294 23 21.5152 22.6396 21.6749 22.1125L22.9212 18ZM15.4089 23L16.0907 18H11.9093L12.591 23H15.4089ZM10.068 23L9.38613 18H5.07883L6.32504 22.1125C6.48475 22.6396 6.9706 23 7.52133 23H10.068Z" fill="black"/>
</svg>
