<svg width="39" height="36" viewBox="0 0 39 36" fill="none" xmlns="http://www.w3.org/2000/svg">
<path d="M29.4961 14.0273V10.0898H26.3516V6.29688H12.293V10.0898H9.14453V14.0273H5.79297V22.0195H9.14453V26.0156H12.293V30.0117H26.3516V26.0156H29.4961V22.0195H32.8477V14.0273H29.4961ZM17.9336 0H20.832V2.89844H17.9336V0ZM17.9336 32.9102H20.832V35.8086H17.9336V32.9102ZM32.8477 2.89844H35.7461V5.79688H32.8477V2.89844ZM32.8477 30.0117H35.7461V32.9102H32.8477V30.0117ZM2.89844 2.89844H5.79688V5.79688H2.89844V2.89844ZM2.89844 30.0117H5.79688V32.9102H2.89844V30.0117ZM0 15.9531H2.89844V18.8516H0V15.9531ZM35.7422 15.9531H38.6406V18.8516H35.7422V15.9531Z" fill="#EFCE0F"/>
</svg>
