<?xml version="1.0" encoding="utf-8"?>
<!-- Generator: Adobe Illustrator 16.2.0, SVG Export Plug-In . SVG Version: 6.00 Build 0)  -->
<!DOCTYPE svg PUBLIC "-//W3C//DTD SVG 1.1//EN" "http://www.w3.org/Graphics/SVG/1.1/DTD/svg11.dtd">
<svg version="1.1" id="Layer_1" xmlns="http://www.w3.org/2000/svg" xmlns:xlink="http://www.w3.org/1999/xlink" x="0px" y="0px"
	 width="20px" height="20px" viewBox="-2 -2 20 20" enable-background="new -2 -2 20 20" xml:space="preserve">
<g>
	<path fill="currentColor" d="M5.501-1.653C5.75-1.35,5.79-0.925,5.601-0.581C4.878,0.746,4.5,2.234,4.504,3.745
		c0,5.026,4.098,9.097,9.147,9.097c0.659,0,1.301-0.068,1.916-0.2c0.386-0.083,0.787,0.072,1.014,0.396
		c0.242,0.337,0.225,0.796-0.039,1.116c-1.985,2.438-4.966,3.852-8.111,3.847C2.669,18-2,13.358-2,7.637
		c0-4.305,2.642-7.998,6.406-9.563C4.79-2.088,5.237-1.978,5.501-1.653z"/>
	<path fill="currentColor" d="M11.494,1.935c0.048-0.142,0.201-0.219,0.343-0.172c0.081,0.027,0.146,0.091,0.172,0.172l0.483,1.453
		c0.217,0.647,0.725,1.154,1.371,1.371l1.453,0.483c0.143,0.047,0.22,0.201,0.173,0.343c-0.026,0.082-0.091,0.146-0.173,0.172
		l-1.453,0.483c-0.646,0.216-1.154,0.724-1.371,1.372l-0.483,1.452c-0.047,0.143-0.201,0.22-0.343,0.174
		c-0.08-0.027-0.146-0.092-0.172-0.174l-0.483-1.452c-0.217-0.647-0.725-1.155-1.371-1.372L8.187,5.757
		C8.044,5.71,7.967,5.557,8.014,5.414C8.04,5.333,8.104,5.269,8.187,5.242L9.64,4.759c0.646-0.216,1.154-0.724,1.371-1.371
		L11.494,1.935z M15.331-1.876c0.031-0.095,0.136-0.145,0.229-0.112c0.054,0.018,0.095,0.059,0.112,0.112l0.322,0.967
		c0.144,0.432,0.483,0.771,0.916,0.915l0.967,0.322c0.095,0.033,0.145,0.136,0.112,0.231c-0.018,0.052-0.059,0.094-0.112,0.112
		l-0.967,0.322c-0.433,0.144-0.772,0.483-0.916,0.915l-0.322,0.967c-0.032,0.095-0.136,0.145-0.229,0.112
		c-0.054-0.018-0.096-0.059-0.112-0.112l-0.322-0.967c-0.145-0.432-0.483-0.771-0.916-0.915l-0.967-0.322
		c-0.095-0.033-0.146-0.136-0.112-0.231c0.018-0.052,0.059-0.094,0.112-0.112l0.967-0.322c0.433-0.144,0.771-0.483,0.916-0.915
		L15.331-1.876L15.331-1.876z"/>
</g>
</svg>
